<svg xmlns="http://www.w3.org/2000/svg" viewBox="0 0 64 64" fill="none">
  <!-- Body -->
  <ellipse cx="32" cy="36" rx="18" ry="14" fill="#FF6B6B" opacity="0.9"/>
  <!-- Shell pattern -->
  <ellipse cx="32" cy="34" rx="14" ry="10" fill="#E55A5A" opacity="0.6"/>
  <ellipse cx="32" cy="33" rx="9" ry="6" fill="#FF6B6B" opacity="0.4"/>
  <!-- Eyes -->
  <circle cx="26" cy="28" r="3.5" fill="#0A0A0A"/>
  <circle cx="38" cy="28" r="3.5" fill="#0A0A0A"/>
  <circle cx="27" cy="27" r="1.2" fill="#FFFFFF"/>
  <circle cx="39" cy="27" r="1.2" fill="#FFFFFF"/>
  <!-- Left claw -->
  <path d="M14 34 C8 28, 6 22, 10 18 C12 16, 15 17, 14 20 C13 23, 12 26, 14 30" stroke="#FF6B6B" stroke-width="3" fill="none" stroke-linecap="round"/>
  <path d="M10 18 C14 16, 16 18, 14 22" stroke="#FF6B6B" stroke-width="2.5" fill="none" stroke-linecap="round"/>
  <!-- Right claw -->
  <path d="M50 34 C56 28, 58 22, 54 18 C52 16, 49 17, 50 20 C51 23, 52 26, 50 30" stroke="#FF6B6B" stroke-width="3" fill="none" stroke-linecap="round"/>
  <path d="M54 18 C50 16, 48 18, 50 22" stroke="#FF6B6B" stroke-width="2.5" fill="none" stroke-linecap="round"/>
  <!-- Legs -->
  <line x1="20" y1="46" x2="16" y2="52" stroke="#FF6B6B" stroke-width="2.5" stroke-linecap="round"/>
  <line x1="26" y1="48" x2="23" y2="54" stroke="#FF6B6B" stroke-width="2.5" stroke-linecap="round"/>
  <line x1="38" y1="48" x2="41" y2="54" stroke="#FF6B6B" stroke-width="2.5" stroke-linecap="round"/>
  <line x1="44" y1="46" x2="48" y2="52" stroke="#FF6B6B" stroke-width="2.5" stroke-linecap="round"/>
  <!-- Headphones -->
  <path d="M18 28 C18 18, 26 12, 32 12 C38 12, 46 18, 46 28" stroke="#4ECDC4" stroke-width="2.5" fill="none" stroke-linecap="round"/>
  <rect x="14" y="26" width="6" height="8" rx="2" fill="#4ECDC4"/>
  <rect x="44" y="26" width="6" height="8" rx="2" fill="#4ECDC4"/>
  <!-- Sound waves -->
  <path d="M52 28 C54 26, 54 32, 52 30" stroke="#2ECC71" stroke-width="1.5" fill="none" stroke-linecap="round" opacity="0.7"/>
  <path d="M55 26 C58 23, 58 35, 55 32" stroke="#2ECC71" stroke-width="1.5" fill="none" stroke-linecap="round" opacity="0.4"/>
</svg>
